<svg width="35" height="35" viewBox="0 0 35 35" fill="none" xmlns="http://www.w3.org/2000/svg">
<path d="M17.5 35C27.165 35 35 27.165 35 17.5C35 7.83502 27.165 0 17.5 0C7.83502 0 0 7.83502 0 17.5C0 27.165 7.83502 35 17.5 35Z" fill="white"/>
<path d="M24.5 13.5L21.2 10.2C21.1 10.1 20.9 10 20.7 10C20.5 10 20.4 10.1 20.2 10.2L10.2 20.2C10.1 20.3 10 20.5 10 20.7V24C10 24.2 10.1 24.3 10.2 24.5C10.3 24.6 10.5 24.7 10.7 24.7H14C14.2 24.7 14.3 24.6 14.5 24.5L24.5 14.5C24.6 14.4 24.7 14.2 24.7 14C24.7 13.8 24.6 13.6 24.5 13.5ZM13.7 23.3H11.3V20.7L18.6 13.6L21 16L13.7 23.3ZM22 15L19.6 12.6L20.5 11.5L23 14L22 15Z" fill="#2A4E96"/>
</svg>
