<svg id="Capa_1" enable-background="new 0 0 510 510" height="512" viewBox="0 0 510 510" width="512" xmlns="http://www.w3.org/2000/svg" xmlns:xlink="http://www.w3.org/1999/xlink"><linearGradient id="SVGID_1_" gradientUnits="userSpaceOnUse" x1="0" x2="510" y1="255" y2="255"><stop offset="0" stop-color="#a2e62e"/><stop offset=".7542" stop-color="#09a76d"/><stop offset="1" stop-color="#017b4e"/></linearGradient><linearGradient id="lg1"><stop offset="0" stop-color="#09a76d"/><stop offset="1" stop-color="#026841"/></linearGradient><linearGradient id="SVGID_2_" gradientUnits="userSpaceOnUse" x1="256" x2="628.344" xlink:href="#lg1" y1="29.335" y2="29.335"/><linearGradient id="SVGID_3_" gradientUnits="userSpaceOnUse" x1="256" x2="628.344" xlink:href="#lg1" y1="480.665" y2="480.665"/><linearGradient id="SVGID_4_" gradientUnits="userSpaceOnUse" x1="256" x2="628.344" xlink:href="#lg1" y1="255" y2="255"/><linearGradient id="SVGID_5_" gradientUnits="userSpaceOnUse" x1="122.485" x2="386.793" xlink:href="#lg1" y1="255" y2="255"/><linearGradient id="SVGID_6_" gradientUnits="userSpaceOnUse" x1="148.032" x2="327.427" y1="255" y2="255"><stop offset="0" stop-color="#fff9df"/><stop offset=".593" stop-color="#ffe177"/><stop offset="1" stop-color="#feb137"/></linearGradient><linearGradient id="SVGID_7_" gradientUnits="userSpaceOnUse" x1="213.722" x2="354.741" y1="318.852" y2="318.852"><stop offset="0" stop-color="#ffe177"/><stop offset="1" stop-color="#feb137"/></linearGradient><g><g><g><path d="m492.295 314.117c6.396 0 11.916-4.527 13.122-10.808 3.003-15.642 4.583-31.791 4.583-48.309s-1.58-32.667-4.583-48.309c-1.206-6.281-6.726-10.808-13.122-10.808h-31.275c-5.689 0-10.727-3.612-12.615-8.978-2.469-7.015-5.307-13.856-8.494-20.499-2.463-5.133-1.459-11.254 2.567-15.279l22.101-22.101c4.525-4.525 5.221-11.632 1.631-16.93-9.106-13.438-19.455-25.965-30.894-37.404l-.008-.008c-11.439-11.439-23.966-21.788-37.404-30.894-5.297-3.589-12.405-2.893-16.93 1.631l-22.101 22.101c-4.026 4.026-10.146 5.03-15.279 2.567-6.642-3.187-13.483-6.025-20.499-8.494-5.366-1.888-8.978-6.926-8.978-12.615v-31.275c0-6.396-4.527-11.916-10.808-13.122-15.642-3.003-31.791-4.583-48.309-4.583s-32.667 1.58-48.309 4.583c-6.281 1.206-10.808 6.726-10.808 13.122v31.275c0 5.689-3.612 10.727-8.978 12.615-7.015 2.469-13.856 5.307-20.499 8.494-5.133 2.463-11.254 1.459-15.279-2.567l-22.101-22.101c-4.525-4.525-11.632-5.221-16.93-1.631-13.439 9.106-25.967 19.456-37.407 30.896l-.003.002c-11.44 11.44-21.79 23.968-30.896 37.407-3.589 5.297-2.893 12.405 1.631 16.93l22.101 22.101c4.026 4.026 5.03 10.146 2.567 15.279-3.187 6.642-6.025 13.483-8.494 20.499-1.888 5.366-6.926 8.978-12.615 8.978h-31.275c-6.396 0-11.916 4.527-13.122 10.808-3.003 15.643-4.583 31.792-4.583 48.31s1.58 32.667 4.583 48.309c1.206 6.281 6.726 10.808 13.122 10.808h31.275c5.689 0 10.727 3.612 12.615 8.978 2.469 7.015 5.307 13.856 8.494 20.499 2.463 5.133 1.459 11.254-2.567 15.279l-22.101 22.101c-4.525 4.525-5.221 11.632-1.631 16.93 9.106 13.439 19.456 25.967 30.896 37.407l.003.002c11.44 11.44 23.967 21.79 37.407 30.896 5.297 3.589 12.405 2.893 16.93-1.631l22.101-22.101c4.026-4.026 10.146-5.03 15.279-2.567 6.642 3.187 13.483 6.025 20.499 8.494 5.366 1.888 8.978 6.926 8.978 12.615v31.275c0 6.396 4.527 11.916 10.808 13.122 15.642 3.004 31.791 4.584 48.309 4.584s32.667-1.58 48.309-4.583c6.281-1.206 10.808-6.726 10.808-13.122v-31.275c0-5.689 3.612-10.727 8.978-12.615 7.015-2.469 13.856-5.307 20.499-8.494 5.133-2.463 11.254-1.459 15.279 2.567l22.101 22.101c4.525 4.525 11.632 5.221 16.93 1.631 13.438-9.106 25.965-19.455 37.404-30.894l.008-.008c11.439-11.439 21.788-23.966 30.894-37.404 3.589-5.297 2.893-12.405-1.631-16.93l-22.101-22.101c-4.026-4.026-5.03-10.146-2.567-15.279 3.187-6.642 6.025-13.483 8.494-20.499 1.888-5.366 6.926-8.978 12.615-8.978z" fill="url(#SVGID_1_)"/><g><path d="m274.1 46.76v-29.05c0-6.384-4.506-11.913-10.775-13.119-9.278-1.786-18.736-3.049-28.335-3.801 6.6-.51 13.27-.79 20.01-.79 16.52 0 32.67 1.58 48.31 4.58 6.28 1.21 10.81 6.73 10.81 13.13v31.27c0 3.76 1.57 7.22 4.18 9.69h-32.29c-6.578 0-11.91-5.332-11.91-11.91z" fill="url(#SVGID_2_)"/><path d="m318.29 451.33c-2.61 2.45-4.17 5.94-4.17 9.69v31.27c0 6.4-4.53 11.92-10.81 13.13-15.64 3-31.79 4.58-48.31 4.58-6.74 0-13.41-.28-20.01-.79 9.599-.751 19.057-2.015 28.335-3.801 6.269-1.207 10.775-6.735 10.775-13.119v-29.05c0-6.578 5.332-11.91 11.91-11.91z" fill="url(#SVGID_3_)"/><path d="m505.417 206.691c-1.206-6.281-6.726-10.808-13.122-10.808h-31.275c-5.689 0-10.727-3.612-12.615-8.978-2.469-7.015-5.307-13.856-8.494-20.499-2.463-5.133-1.459-11.254 2.567-15.28l22.101-22.101c4.525-4.525 5.221-11.632 1.631-16.93-9.106-13.438-19.455-25.965-30.894-37.404l-.008-.008c-11.439-11.439-23.966-21.788-37.404-30.894-5.297-3.589-12.405-2.893-16.93 1.631l-8.798 8.798c8.113 6.356 15.834 13.187 23.112 20.465l.008.008c11.439 11.439 21.788 23.966 30.894 37.404 3.589 5.297 2.893 12.405-1.631 16.93l-22.101 22.101c-4.026 4.026-5.03 10.146-2.567 15.28 3.187 6.642 6.025 13.483 8.494 20.499 1.888 5.366 6.926 8.978 12.615 8.978h31.275c6.396 0 11.916 4.527 13.122 10.808 3.003 15.642 4.583 31.79 4.583 48.309s-1.58 32.667-4.583 48.309c-1.206 6.281-6.726 10.808-13.122 10.808h-31.275c-5.689 0-10.727 3.612-12.615 8.978-2.469 7.015-5.307 13.856-8.494 20.499-2.463 5.133-1.459 11.254 2.567 15.28l22.101 22.101c4.525 4.525 5.221 11.632 1.631 16.93-9.106 13.438-19.455 25.965-30.894 37.404l-.008.008c-7.278 7.277-14.999 14.109-23.112 20.465l8.798 8.798c4.525 4.525 11.632 5.221 16.93 1.631 13.438-9.106 25.965-19.455 37.404-30.894l.008-.008c11.439-11.439 21.788-23.966 30.894-37.404 3.589-5.297 2.893-12.405-1.631-16.93l-22.101-22.101c-4.026-4.026-5.03-10.146-2.567-15.28 3.187-6.642 6.025-13.483 8.494-20.499 1.888-5.366 6.926-8.978 12.615-8.978h31.275c6.396 0 11.916-4.527 13.122-10.808 3.003-15.642 4.583-31.79 4.583-48.309s-1.58-32.667-4.583-48.309z" fill="url(#SVGID_4_)"/></g></g><circle cx="255" cy="255" fill="url(#SVGID_5_)" r="133.908"/></g><g><path d="m350.529 208.828h-54.046c-14.132 0-24.327-13.536-20.426-27.119l23.876-83.134c4.183-14.564-14.975-24.042-24.014-11.882l-133.79 179.979c-10.598 14.257-.422 34.5 17.342 34.5h54.046c14.132 0 24.327 13.536 20.426 27.119l-23.876 83.134c-4.183 14.564 14.975 24.042 24.014 11.882l133.79-179.979c10.598-14.257.422-34.5-17.342-34.5z" fill="url(#SVGID_6_)"/><path d="m350.529 208.828h-42.262c-25.705 48.873-76.967 82.206-136.022 82.206-11.282 0-22.275-1.228-32.864-3.536 3.069 7.721 10.459 13.675 20.091 13.675h54.046c14.132 0 24.327 13.536 20.426 27.119l-23.876 83.134c-4.183 14.564 14.975 24.042 24.014 11.882l133.79-179.979c10.597-14.258.421-34.501-17.343-34.501z" fill="url(#SVGID_7_)"/></g></g></svg>